<svg width="52" height="40" viewBox="0 0 52 40" fill="none" xmlns="http://www.w3.org/2000/svg">
<path d="M43.7748 3.35121C40.3859 1.76552 36.8007 0.638528 33.114 0C32.6541 0.829404 32.1192 1.94819 31.7472 2.83444C27.8312 2.23759 23.8474 2.23759 19.9314 2.83444C19.5207 1.86599 19.0593 0.919864 18.5491 0C14.8592 0.639581 11.2712 1.76922 7.88049 3.35896C1.13416 13.5547 -0.695181 23.4972 0.219489 33.2976C4.15762 36.2711 8.58226 38.5381 13.2962 39.9974C14.3553 38.5399 15.2921 36.9972 16.097 35.3853C14.566 34.8018 13.09 34.0833 11.6864 33.2382C12.0559 32.9643 12.4177 32.6775 12.7665 32.3829C21.2698 36.3594 30.5069 36.3594 38.9095 32.3829C39.2635 32.6775 39.6252 32.9643 39.9895 33.2382C38.5917 34.0805 37.1112 34.804 35.5712 35.3879C36.3748 37.0006 37.3116 38.5433 38.3721 40C43.0897 38.5415 47.5173 36.2727 51.4565 33.295C52.5288 21.9366 49.6246 12.0845 43.7748 3.35121ZM17.2546 27.2696C14.7018 27.2696 12.6089 24.8873 12.6089 21.9857C12.6089 19.084 14.6578 16.6966 17.2546 16.6966C19.8513 16.6966 21.9442 19.0789 21.9003 21.9857C21.9028 24.8873 19.8513 27.2696 17.2546 27.2696ZM34.4214 27.2696C31.8686 27.2696 29.7757 24.8873 29.7757 21.9857C29.7757 19.084 31.8247 16.6966 34.4214 16.6966C37.0181 16.6966 39.111 19.0789 39.0671 21.9857C39.0671 24.8873 37.0181 27.2696 34.4214 27.2696Z" fill="#DEBF59"/>
</svg>
