<svg width="50" height="40" viewBox="0 0 50 40" fill="none" xmlns="http://www.w3.org/2000/svg">
<path d="M44.1874 9.96868C44.22 10.4072 44.22 10.8433 44.22 11.2793C44.22 24.6235 34.0634 40 15.5018 40C9.78323 40 4.47062 38.3436 0 35.4667C0.811928 35.5595 1.59379 35.592 2.43829 35.592C6.98156 35.603 11.3962 34.0838 14.9706 31.2793C12.8641 31.2412 10.8221 30.5462 9.12978 29.2914C7.43741 28.0366 6.17914 26.2847 5.53063 24.2802C6.15462 24.3729 6.7811 24.4355 7.43766 24.4355C8.34231 24.4355 9.25197 24.3102 10.0965 24.0922C7.81045 23.6307 5.75485 22.3916 4.27921 20.5856C2.80357 18.7797 1.99898 16.5184 2.00226 14.1862V14.0609C3.34795 14.8102 4.90916 15.2788 6.56309 15.3414C5.17752 14.4207 4.0414 13.1713 3.25608 11.7048C2.47077 10.2382 2.06068 8.60006 2.0624 6.93647C2.0624 5.06202 2.56108 3.34294 3.43566 1.84438C5.97203 4.96434 9.13545 7.51676 12.7211 9.33632C16.3066 11.1559 20.2345 12.202 24.2501 12.407C24.0947 11.6552 23.9995 10.8758 23.9995 10.094C23.9988 8.76823 24.2595 7.45535 24.7665 6.2304C25.2735 5.00544 26.017 3.89243 26.9545 2.95499C27.8919 2.01755 29.0049 1.27405 30.2299 0.767018C31.4548 0.259981 32.7677 -0.00065751 34.0935 1.24562e-06C37.0004 1.24562e-06 39.6241 1.21789 41.4685 3.18757C43.7283 2.75058 45.8954 1.92563 47.8737 0.74928C47.1204 3.08186 45.5426 5.05978 43.4357 6.31249C45.4399 6.0839 47.3987 5.55683 49.247 4.74878C47.8665 6.7613 46.1559 8.52611 44.1874 9.96868Z" fill="#DEBF59"/>
</svg>
