<svg width="241" height="149" viewBox="0 0 241 149" fill="none" xmlns="http://www.w3.org/2000/svg">
<path d="M49.3555 29.201C88.6476 -9.36842 152.353 -9.36842 191.645 29.201L196.373 33.8429C198.338 35.7713 198.338 38.898 196.373 40.8265L180.197 56.7054C179.215 57.6697 177.622 57.6697 176.64 56.7054L170.132 50.3176C142.721 23.4107 98.279 23.4107 70.8679 50.3176L63.8989 57.1584C62.9166 58.1227 61.324 58.1227 60.3417 57.1584L44.1652 41.2795C42.2006 39.351 42.2006 36.2243 44.1652 34.2959L49.3555 29.201ZM225.099 62.0404L239.496 76.1727C241.461 78.1012 241.461 81.2278 239.496 83.1563L174.579 146.881C172.614 148.809 169.429 148.809 167.464 146.881C167.464 146.881 167.464 146.881 167.464 146.881L121.39 101.654C120.899 101.172 120.102 101.172 119.611 101.654C119.611 101.654 119.611 101.654 119.611 101.654L73.5375 146.881C71.5729 148.809 68.3877 148.809 66.4231 146.881C66.4231 146.881 66.423 146.881 66.423 146.881L1.50372 83.1555C-0.460877 81.227 -0.460877 78.1004 1.50372 76.1719L15.9008 62.0396C17.8654 60.1111 21.0507 60.1111 23.0153 62.0396L69.0905 107.267C69.5816 107.749 70.3779 107.749 70.8691 107.267C70.8691 107.267 70.8691 107.267 70.8691 107.267L116.942 62.0396C118.907 60.111 122.092 60.111 124.056 62.0394C124.056 62.0394 124.056 62.0394 124.056 62.0395L170.132 107.267C170.623 107.749 171.419 107.749 171.91 107.267L217.985 62.0404C219.949 60.1119 223.134 60.1119 225.099 62.0404Z" fill="#DEBF59"/>
</svg>
